<svg version="1.2" xmlns="http://www.w3.org/2000/svg" viewBox="0 0 105 75" width="105" height="75">
	<title>vastuni</title>
	<style>
		.s0 { fill: #bc0a0a } 
	</style>
	<path id="VST" class="s0" aria-label="VST"  d="m13 2.1h-6l-5.4 38.1c-0.8 4.9 0.6 7.4 4.8 7.4 3 0 5-1.7 6.6-6.2l14.5-39.3h-6l-13.6 37.5c-0.2 0.3-0.3 0.5-0.4 0.5-0.1 0-0.2-0.2-0.1-0.5zm24.9-0.6c-4.6 0-7.9 2.2-9 6.1l-2.3 8.6c-1.1 4.3 0.2 7.3 3.7 9l2.7 1.3c1.6 1 2.3 2.5 1.7 4.7l-2 7.9c-0.5 1.7-1.7 2.6-3.4 2.6-2.2 0-3.1-1.2-2.6-3.4l1-4.2h-6l-0.9 3.7c-1.5 6.4 1.2 9.8 8.2 9.8 4.9 0 8.1-2.5 9.4-7.4l2.4-9c1.2-4.5 0-7.6-3.4-9.5l-2.7-1.3c-1.9-1-2.6-2.4-2-4.4l1.6-6.1c0.5-1.5 1.7-2.5 3.3-2.5 2.1 0 3 1.3 2.6 3.4l-0.8 2.9h6l0.6-2.4c1.6-6.2-1.5-9.8-8.1-9.8zm30.7 0.6h-18.1l-1.5 5.7h6l-10.5 39.2h6l10.5-39.2h6.1z"/>
	<path id="UNI" class="s0" aria-label="UNI"  d="m56.2 26.1h-5.9l-9.6 35.7c-1.8 6.4 1 9.8 7.9 9.8 4.8 0 7.9-2.1 9-6.2l10.5-39.3h-6l-9.9 37c-0.4 1.7-1.6 2.6-3.3 2.6-2.1 0-3-1.2-2.4-3.4zm17.2 44.9h6l9.5-35.7c1.8-6.4-1-9.8-8.1-9.8-4.8 0-7.9 2.1-9 6.2l-10.6 39.3h6l10-37c0.4-1.7 1.4-2.6 3-2.6 2.6 0 3.5 1.2 2.9 3.4zm29.4-44.9h-6l-12 44.9h6z"/>
</svg>